<?xml version="1.0" encoding="utf-8"?>
<!-- Generator: Adobe Illustrator 25.0.0, SVG Export Plug-In . SVG Version: 6.00 Build 0)  -->
<svg version="1.1" id="Layer_1" xmlns="http://www.w3.org/2000/svg" xmlns:xlink="http://www.w3.org/1999/xlink" x="0px" y="0px"
	 viewBox="0 0 788.6 436.5" style="enable-background:new 0 0 788.6 436.5;" xml:space="preserve">
<style type="text/css">
	.st0{fill:#E8F2FA;}
	.st1{opacity:0.5;}
	.st2{opacity:0.5;fill:#A8CCFF;}
	.st3{fill:#DCEAFF;}
	.st4{fill:#FDDBBA;}
	.st5{fill:#7CB8FF;}
	.st6{fill:#A8CCFF;}
	.st7{fill:#FB5910;}
	.st8{fill:#FF912B;}
	.st9{fill:#FFE9D6;}
	.st10{fill:#8BC5FF;}
	.st11{fill:#B5D4FC;}
	.st12{fill:#FF713C;}
	.st13{fill:#FFA25E;}
	.st14{fill:#A9C2FF;}
	.st15{fill:#25468F;}
	.st16{fill:#FFFFFF;}
	.st17{fill:#FFAE73;}
	.st18{fill:#FF9E60;}
	.st19{fill:#0B3563;}
	.st20{fill:#F48F4E;}
	.st21{fill:#FFE4CB;}
	.st22{fill:#F8C79F;}
	.st23{fill:#A8CFFF;}
	.st24{fill:#2D3554;}
	.st25{fill:#2A3967;}
	.st26{fill:#FF7900;}
	.st27{fill:#73B471;}
	.st28{fill:#FFAF76;}
	.st29{fill:#8CA0FF;}
	.st30{fill:#F99352;}
</style>
<g>
	<path class="st0" d="M45.8,435.5c0,0-53.1-40.4-16.1-137.1c21.8-57,95.4-48.2,91.7-150.6C117.7,45.5,227-38.8,384,18.7
		c51.2,18.7,75.3,46.6,114.5,31.5c75.9-29.3,179.6-17.2,182.9,76.8c5.2,149.2,82.4,82.6,88.7,191.4c2.2,37.1-2.7,75.3-42.3,117.2
		H45.8z"/>
	<g class="st1">
		<path class="st2" d="M364.4,145.6c0,0-6.9-57.4-36.3-91.7c-3.9-4.6-11.4-1.7-11.3,4.3c0,0.1,0,0.2,0,0.3
			C317.2,68.8,350.1,112,364.4,145.6z"/>
		<path class="st2" d="M367.9,162c0,0-29.3-71.8-79.4-103.5c-3.1-1.9-7.2-1.2-9.2,1.7c-1.3,1.9-1.9,5-0.4,9.7
			C282.9,82.6,338.7,125.1,367.9,162z"/>
	</g>
	<path class="st3" d="M297,120.6c0,0-1.9,44-10,43.2c-8.2-0.9,5.6-48.9,5.6-48.9s-34.8-28-50.6-30c0,0,14.8,46.8,7,44
		C241.3,126,223.7,78,223.7,78s-38.5-16.8-50.5,5.5c-12,22.3-4.3,36.7,1.3,39.5c5.6,2.9,43.9,11.3,41.8,16
		c-2.1,4.7-29.8,6.7-43.2-1.1c0,0,6.8,42.9,28.1,45.8c21.3,2.9,30.8-8.6,43.9-6.5c13.1,2,21.8,7.7,14.5,9.6c-7.3,2-28.6-5.4-41,1
		c-12.5,6.4-22.2,9.9-3.8,18.4c18.4,8.5,53.8,14.1,64.2,0.8c0.5-0.6,0.9-1.1,1.3-1.7c-0.7,1.1-1.3,1.7-1.3,1.7
		c3.1,2.9,6.1,14.1,8.1,22.6c0.2,1.4,0.6,3.4,1.3,6.1l0,0c0.2,1.2,0.4,2.2,0.6,2.9c2.9,18.7-7.6,47.3-7.6,47.3l3.9,2.1
		c16.1-27.6,5.7-55.7,5.7-55.7c-5.9-21.8-1.5-38.5-1.5-38.5s42.1-12.2,31.3-44.5C320.7,149.2,310.8,128.6,297,120.6z"/>
	<path class="st2" d="M629.8,111.2C628.6,86.4,587.5,85,587.5,85s-35.9,35.1-43.9,34.3c-8-0.7,24.8-36,24.8-36
		c-14.8-4.8-57.4,5.3-57.4,5.3s-8.1,48.3-15.7,45.6c-7.6-2.7,9.3-42.4,9.3-42.4c-15.6,1.2-33,15.2-33,15.2
		c-23.2,24,8.9,52.6,8.9,52.6s-3.2,16.7-17.6,33.5l0,0c0,0-3.1,3-6.7,8.5l4,0.9c0.6-1,1.1-2,1.8-2.9c0,0,0,0,0,0c0,0,0,0,0,0
		c0.4-0.6,1-1.3,1.7-2.3c0,0,0,0,0,0c0,0,0,0,0,0c1.7-2.1,3-3.7,3.8-4.9c0,0,0,0,0,0c5.3-6.7,12.7-15.3,16.7-16.6c0,0-0.3-0.7-0.5-2
		c0.1,0.6,0.3,1.3,0.5,2c3.6,16.1,37.2,26.1,57.1,26.4c19.9,0.3,12.8-6.9,4.4-17.9c-8.3-11-30.3-13.4-35.9-18.2
		c-5.6-4.8,4.4-6.2,16.9-2.4c12.5,3.8,16,17.8,36.1,24.3c20.1,6.5,44.2-28.6,44.2-28.6c-15.1,1.3-38.8-12.1-38.7-17.2
		c0.1-5.1,37.5,3.7,43.7,3.5C618.1,145.5,631,136,629.8,111.2z"/>
	<g>
		<g>
			<g>
				<path class="st4" d="M484.2,122.5l-16.1,37.9l-31.7,74.6c-0.4-0.1-0.7-0.3-1.1-0.4c-9.2-3.6-19.1-5.6-29.6-5.6
					c-7.7,0-15.2,1.1-22.3,3.1c-3.5,1-6.9,2.2-10.1,3.6l-4.6-8.9l0,0v0l0,0l-32.4-63.3l-18.8-36.7c26.7-12.9,56.6-20.1,88.2-20.1
					c27.7,0,54.1,5.5,78.2,15.6h0C484.1,122.5,484.1,122.5,484.2,122.5z"/>
			</g>
			<g>
				<path class="st5" d="M339.6,263.2c-0.3,0.4-0.6,0.8-0.8,1.2c-8.9,13.1-14.2,28.9-14.2,45.9v0H202.3c0-40,11.5-77.3,31.5-108.7
					l35.6,20.8L339.6,263.2z"/>
			</g>
			<g>
				<path class="st6" d="M373.4,235.8c-0.3,0.1-0.6,0.3-0.9,0.4c-0.1,0-0.1,0.1-0.2,0.1c-13.1,6-24.4,15.3-32.7,26.9l-70.2-40.9
					l-35.6-20.8c20.3-32.1,49.4-58.1,83.8-74.7l18.8,36.7l32.4,63.3l0,0v0l0,0L373.4,235.8z"/>
			</g>
			<g>
				<path class="st7" d="M487.1,310.4L487.1,310.4c0-16.8-5.1-32.4-13.8-45.3c-0.2-0.4-0.5-0.7-0.7-1l70.1-40.9l35.6-20.8
					c19.6,31.3,31,68.3,31,107.9H487.1z"/>
			</g>
			<g>
				<path class="st8" d="M578.3,202.4l-35.6,20.8L472.6,264c-8.9-12.8-21.3-22.9-35.9-28.9c-0.1,0-0.1-0.1-0.2-0.1l31.7-74.6
					l16.1-37.9C523.2,138.8,556.1,166.9,578.3,202.4z"/>
			</g>
		</g>
		<g>
			<path class="st9" d="M436.7,235.2c-0.1,0-0.1-0.1-0.2-0.1c-0.4-0.1-0.7-0.3-1.1-0.4c-9.2-3.6-19.1-5.6-29.6-5.6
				c-7.7,0-15.2,1.1-22.3,3.1c-3.5,1-6.9,2.2-10.1,3.6c-0.3,0.1-0.6,0.3-0.9,0.4l-36-72.6c21.1-10,44.6-15.6,69.4-15.6
				c22.1,0,43.1,4.4,62.3,12.4C468.1,160.4,436.7,235.2,436.7,235.2z"/>
		</g>
		<g>
			<path class="st10" d="M338.8,264.4c-8.9,13.1-14.2,28.9-14.2,45.9h-81c0-31.9,10-62.9,25.9-87.9L338.8,264.4z"/>
		</g>
		<g>
			<path class="st11" d="M372.4,236.2c-0.1,0-0.1,0.1-0.2,0.1c-13.1,6-24.4,15.3-32.7,26.9c-0.3,0.4-0.6,0.8-0.8,1.2l-69.3-42.1
				c16.2-25,39.9-45.7,67-58.8L372.4,236.2z"/>
		</g>
		<g>
			<path class="st12" d="M567.1,310.3h-80.2c0-16.9-5-32.7-13.6-45.7l69.4-41.3C558.2,248.5,567.1,278.3,567.1,310.3z"/>
		</g>
		<g>
			<path class="st13" d="M473.3,265.1c-0.2-0.4-0.5-0.7-0.7-1c-8.9-12.8-21.3-22.9-35.9-28.9l31.4-74.7c30.7,12.8,56.9,35,74.6,62.7
				C543,223.5,473.3,265.1,473.3,265.1z"/>
		</g>
		<g>
			<path class="st14" d="M458.5,310.4H353.1c0-12.3,4.2-23.7,11.3-32.6c4.8-6,10.8-11,17.8-14.5c1.4-0.7,2.8-1.3,4.2-1.9
				c3.3-1.3,6.7-2.3,10.3-2.9c3-0.5,6-0.8,9.1-0.8c6.4,0,12.5,1.1,18.2,3.2c0.4,0.2,0.9,0.3,1.3,0.5c9,3.6,16.7,9.5,22.5,17.1
				C454.5,287.3,458.5,298.4,458.5,310.4z"/>
		</g>
		<g>
			<path class="st5" d="M440.8,310.4h-70c0-9.1,3.5-17.4,9.1-23.6c2.4-2.7,5.3-4.9,8.4-6.8c1.9-1.1,4-2.1,6.2-2.8
				c3.4-1.2,7-1.8,10.8-1.9c0.2,0,0.4,0,0.5,0c3.9,0,7.6,0.6,11.2,1.8c0.5,0.2,1,0.3,1.4,0.5c5.4,2.1,10.2,5.5,13.9,9.8
				C437.6,293.6,440.8,301.6,440.8,310.4z"/>
		</g>
		<g>
			<g>
				<path class="st15" d="M408,306.5c-1.6,0.6-3.4,0.7-5.2,0.2c-0.3-0.1-0.6-0.2-0.8-0.3c-0.3-0.1-0.5-0.2-0.8-0.3
					c-3.6-1.7-5.7-5.5-5.2-9.5c0-0.1,0-0.1,0-0.2l1.1-3.6l0,0l4.4-14.1l5-16l8-25.5l2.8-8.9l0,0l0,0l0,0l15.3-49.1
					c0.2-0.6,0.8-0.9,1.3-0.7l1.9,0.5c0.6,0.1,0.9,0.7,0.8,1.3l-11.4,60.3l-5.1,26.9l-3.3,17.4l-2.6,13.7l-0.4,1.9l-0.1,0.4
					c0,0.1,0,0.1-0.1,0.2C412.6,303.8,410.5,305.7,408,306.5z"/>
			</g>
			<path class="st4" d="M401.3,295.5c0.8-2.1,3.2-3.2,5.4-2.4c2.1,0.8,3.2,3.2,2.4,5.4c-0.8,2.1-3.2,3.2-5.4,2.4
				C401.5,300,400.4,297.6,401.3,295.5z"/>
		</g>
	</g>
	<g>
		<path class="st16" d="M299.8,213.5h1.1l3.6,4.7v-4.7h1.2v6.8h-1l-3.7-4.8v4.8h-1.2V213.5z"/>
		<path class="st16" d="M307.1,216.9c0-1.9,1.5-3.5,3.5-3.5s3.5,1.6,3.5,3.5c0,1.9-1.5,3.5-3.5,3.5
			C308.5,220.3,307.1,218.8,307.1,216.9z M312.9,216.9c0-1.3-1-2.4-2.3-2.4c-1.3,0-2.3,1.1-2.3,2.4c0,1.3,1,2.4,2.3,2.4
			S312.9,218.2,312.9,216.9z"/>
		<path class="st16" d="M315.6,213.5h3c1.6,0,2.5,0.8,2.5,2.2c0,1.1-0.7,1.8-1.6,2l1.8,2.6h-1.4l-1.7-2.4h-1.5v2.4h-1.2V213.5z
			 M318.5,216.8c0.8,0,1.4-0.4,1.4-1.1c0-0.7-0.5-1.1-1.4-1.1h-1.7v2.3H318.5z"/>
		<path class="st16" d="M322.5,213.5h1.3l2.1,3.2l2.1-3.2h1.3v6.8H328v-4.8l-2.1,3.2h0l-2.1-3.2v4.8h-1.2V213.5z"/>
		<path class="st16" d="M333.3,213.4h1.1l3,6.8h-1.3l-0.7-1.6h-3.2l-0.7,1.6h-1.2L333.3,213.4z M335,217.5l-1.2-2.7l-1.2,2.7H335z"
			/>
		<path class="st16" d="M338.5,213.5h1.2v5.7h3.5v1.1h-4.7V213.5z"/>
	</g>
	<g>
		<path class="st16" d="M385.1,163.6h5v1.1h-3.8v1.8h3.4v1.1h-3.4v1.8h3.9v1.1h-5.1V163.6z"/>
		<path class="st16" d="M393.5,166.9l-2.4-3.3h1.4l1.7,2.4l1.7-2.4h1.4l-2.4,3.3l2.4,3.5h-1.4l-1.8-2.6l-1.8,2.6H391L393.5,166.9z"
			/>
		<path class="st16" d="M397.8,166.9c0-1.9,1.4-3.5,3.5-3.5c1.2,0,2,0.4,2.6,1.1l-0.8,0.9c-0.5-0.5-1.1-0.8-1.9-0.8
			c-1.3,0-2.2,1.1-2.2,2.4c0,1.3,0.9,2.4,2.2,2.4c0.8,0,1.4-0.3,1.9-0.9l0.8,0.8c-0.7,0.7-1.5,1.2-2.7,1.2
			C399.3,170.4,397.8,168.9,397.8,166.9z"/>
		<path class="st16" d="M405.2,163.6h5v1.1h-3.8v1.8h3.4v1.1h-3.4v1.8h3.9v1.1h-5.1V163.6z"/>
		<path class="st16" d="M411.2,169.3l0.7-0.8c0.6,0.6,1.3,0.9,2.1,0.9c0.7,0,1.2-0.3,1.2-0.9c0-0.5-0.3-0.7-1.5-1
			c-1.4-0.3-2.2-0.8-2.2-2c0-1.2,1-2,2.3-2c1,0,1.8,0.3,2.4,0.8l-0.6,0.9c-0.6-0.5-1.2-0.7-1.8-0.7c-0.7,0-1.1,0.4-1.1,0.8
			c0,0.5,0.3,0.8,1.6,1.1c1.4,0.3,2.2,0.9,2.2,2c0,1.3-1,2-2.4,2C413,170.4,412,170.1,411.2,169.3z"/>
		<path class="st16" d="M417.3,169.3l0.7-0.8c0.6,0.6,1.3,0.9,2.1,0.9c0.7,0,1.2-0.3,1.2-0.9c0-0.5-0.3-0.7-1.5-1
			c-1.4-0.3-2.2-0.8-2.2-2c0-1.2,1-2,2.3-2c1,0,1.8,0.3,2.4,0.8l-0.6,0.9c-0.6-0.5-1.2-0.7-1.8-0.7c-0.7,0-1.1,0.4-1.1,0.8
			c0,0.5,0.3,0.8,1.6,1.1c1.4,0.3,2.2,0.9,2.2,2c0,1.3-1,2-2.4,2C419.1,170.4,418.1,170.1,417.3,169.3z"/>
		<path class="st16" d="M383.3,175.1h1.3l1.6,5l1.7-5h1l1.7,5l1.6-5h1.2l-2.4,6.8h-1l-1.7-4.9l-1.7,4.9h-1L383.3,175.1z"/>
		<path class="st16" d="M394.5,175.1h5v1.1h-3.8v1.8h3.4v1.1h-3.4v1.8h3.9v1.1h-5.1V175.1z"/>
		<path class="st16" d="M401.1,175.1h1.2v6.8h-1.2V175.1z"/>
		<path class="st16" d="M403.8,178.5c0-1.9,1.4-3.5,3.5-3.5c1.2,0,1.9,0.3,2.6,0.9l-0.8,0.9c-0.5-0.4-1-0.7-1.9-0.7
			c-1.2,0-2.2,1.1-2.2,2.4c0,1.4,0.9,2.4,2.3,2.4c0.6,0,1.2-0.2,1.6-0.5v-1.3h-1.7v-1h2.9v2.8c-0.7,0.6-1.6,1.1-2.8,1.1
			C405.2,182,403.8,180.5,403.8,178.5z"/>
		<path class="st16" d="M411.6,175.1h1.2v2.8h3.2v-2.8h1.2v6.8H416V179h-3.2v2.8h-1.2V175.1z"/>
		<path class="st16" d="M420.6,176.2h-2.1v-1.1h5.5v1.1h-2.1v5.7h-1.2V176.2z"/>
	</g>
	<g>
		<path class="st16" d="M465.9,216.9c0-1.9,1.5-3.5,3.5-3.5c2.1,0,3.5,1.6,3.5,3.5c0,1.9-1.5,3.5-3.5,3.5
			C467.4,220.3,465.9,218.8,465.9,216.9z M471.8,216.9c0-1.3-1-2.4-2.3-2.4s-2.3,1.1-2.3,2.4c0,1.3,1,2.4,2.3,2.4
			S471.8,218.2,471.8,216.9z"/>
		<path class="st16" d="M474.4,213.5h3c0.8,0,1.4,0.2,1.8,0.6c0.3,0.3,0.5,0.7,0.5,1.1c0,0.8-0.5,1.2-1,1.5c0.8,0.3,1.3,0.7,1.3,1.7
			c0,1.2-1,1.9-2.5,1.9h-3.1V213.5z M477.2,216.3c0.8,0,1.3-0.3,1.3-0.9c0-0.5-0.4-0.9-1.2-0.9h-1.7v1.8H477.2z M477.6,219.2
			c0.8,0,1.3-0.3,1.3-0.9c0-0.6-0.5-0.9-1.4-0.9h-1.9v1.9H477.6z"/>
		<path class="st16" d="M481.4,213.5h5v1.1h-3.8v1.8h3.4v1.1h-3.4v1.8h3.9v1.1h-5.1V213.5z"/>
		<path class="st16" d="M487.4,219.2l0.7-0.8c0.6,0.6,1.3,0.9,2.1,0.9c0.7,0,1.2-0.3,1.2-0.9c0-0.5-0.3-0.7-1.5-1
			c-1.4-0.3-2.2-0.8-2.2-2c0-1.2,1-2,2.3-2c1,0,1.8,0.3,2.4,0.8l-0.6,0.9c-0.6-0.5-1.2-0.7-1.8-0.7c-0.7,0-1.1,0.4-1.1,0.8
			c0,0.5,0.3,0.8,1.6,1.1c1.4,0.3,2.2,0.9,2.2,2c0,1.3-1,2-2.4,2C489.2,220.3,488.2,220,487.4,219.2z"/>
		<path class="st16" d="M494.1,213.5h1.2v6.8h-1.2V213.5z"/>
		<path class="st16" d="M498.8,214.6h-2.1v-1.1h5.5v1.1H500v5.7h-1.2V214.6z"/>
		<path class="st16" d="M505.3,217.6l-2.7-4.1h1.4l1.9,3l1.9-3h1.4l-2.7,4.1v2.7h-1.2V217.6z"/>
	</g>
	<g>
		<path class="st16" d="M490.9,268.9h5v1.1h-3.8v1.8h3.4v1.1h-3.4v1.8h3.9v1.1h-5.1V268.9z"/>
		<path class="st16" d="M499.3,272.3l-2.4-3.3h1.4l1.7,2.4l1.7-2.4h1.4l-2.4,3.3l2.4,3.5h-1.4l-1.8-2.6l-1.8,2.6h-1.4L499.3,272.3z"
			/>
		<path class="st16" d="M506.1,270h-2.1v-1.1h5.5v1.1h-2.1v5.7h-1.2V270z"/>
		<path class="st16" d="M510.7,268.9h3c1.6,0,2.5,0.8,2.5,2.2c0,1.1-0.7,1.8-1.6,2l1.8,2.6H515l-1.7-2.4h-1.5v2.4h-1.2V268.9z
			 M513.6,272.3c0.8,0,1.4-0.4,1.4-1.1c0-0.7-0.5-1.1-1.4-1.1h-1.7v2.3H513.6z"/>
		<path class="st16" d="M517.6,268.9h5v1.1h-3.8v1.8h3.4v1.1h-3.4v1.8h3.9v1.1h-5.1V268.9z"/>
		<path class="st16" d="M524.1,268.9h1.3l2.1,3.2l2.1-3.2h1.3v6.8h-1.2v-4.8l-2.1,3.2h0l-2.1-3.2v4.8h-1.2V268.9z"/>
		<path class="st16" d="M532.5,268.9h5v1.1h-3.8v1.8h3.4v1.1h-3.4v1.8h3.9v1.1h-5.1V268.9z"/>
		<path class="st16" d="M538.9,268.9h1.2v5.7h3.5v1.1h-4.7V268.9z"/>
		<path class="st16" d="M545.6,273l-2.7-4.1h1.4l1.9,3l1.9-3h1.4l-2.7,4.1v2.7h-1.2V273z"/>
		<path class="st16" d="M498.4,283.9c0-1.9,1.5-3.5,3.5-3.5c2.1,0,3.5,1.6,3.5,3.5c0,1.9-1.5,3.5-3.5,3.5
			C499.9,287.4,498.4,285.8,498.4,283.9z M504.3,283.9c0-1.3-1-2.4-2.3-2.4s-2.3,1.1-2.3,2.4c0,1.3,1,2.4,2.3,2.4
			C503.3,286.3,504.3,285.2,504.3,283.9z"/>
		<path class="st16" d="M506.9,280.5h3c0.8,0,1.4,0.2,1.8,0.6c0.3,0.3,0.5,0.7,0.5,1.1c0,0.8-0.5,1.2-1,1.5c0.8,0.3,1.3,0.7,1.3,1.7
			c0,1.2-1,1.9-2.5,1.9h-3.1V280.5z M509.7,283.4c0.8,0,1.3-0.3,1.3-0.9c0-0.5-0.4-0.9-1.2-0.9h-1.7v1.8H509.7z M510.1,286.2
			c0.8,0,1.3-0.3,1.3-0.9c0-0.6-0.5-0.9-1.4-0.9h-1.9v1.9H510.1z"/>
		<path class="st16" d="M513.9,280.5h5v1.1h-3.8v1.8h3.4v1.1h-3.4v1.8h3.9v1.1h-5.1V280.5z"/>
		<path class="st16" d="M519.9,286.3l0.7-0.8c0.6,0.6,1.3,0.9,2.1,0.9c0.7,0,1.2-0.3,1.2-0.9c0-0.5-0.3-0.7-1.5-1
			c-1.4-0.3-2.2-0.8-2.2-2c0-1.2,1-2,2.3-2c1,0,1.8,0.3,2.4,0.8l-0.6,0.9c-0.6-0.5-1.2-0.7-1.8-0.7c-0.7,0-1.1,0.4-1.1,0.8
			c0,0.5,0.3,0.8,1.6,1.1c1.4,0.3,2.2,0.9,2.2,2c0,1.3-1,2-2.4,2C521.7,287.4,520.7,287,519.9,286.3z"/>
		<path class="st16" d="M526.6,280.5h1.2v6.8h-1.2V280.5z"/>
		<path class="st16" d="M531.2,281.6h-2.1v-1.1h5.5v1.1h-2.1v5.7h-1.2V281.6z"/>
		<path class="st16" d="M537.8,284.6l-2.7-4.1h1.4l1.9,3l1.9-3h1.4l-2.7,4.1v2.7h-1.2V284.6z"/>
	</g>
	<g>
		<g>
			<path class="st17" d="M625.2,407.7c0,0,1.6,16.9-0.3,17.8l-24.5-0.1c0,0,0-2.8,3.9-3.5c3.9-0.6,10.9-2.9,12-8.1
				C617.4,408.8,625.2,407.7,625.2,407.7z"/>
			<path class="st17" d="M628.3,364.2c-0.9,24.6-2.7,47.8-2.7,47.8s-1.2,1.2-4.8,2.3c-2.7,0.7-4.5-0.3-4.5-0.3s-1.7-13.8-2.2-17
				c-0.6-3.5-23.7-72.6-20.7-98.1c2.1-17.9,11.8-29.6,11.8-29.6h19.1c0,0,0,13.2,1.6,31c0.5,5,1,10.4,1.8,16
				C629.2,327,629,345.9,628.3,364.2z"/>
			<path class="st18" d="M628.3,364.2c-4.2-10.7-16-40.5-17.4-45.7c-1.7-6.3-5.7-10-5.7-10l20.7-8.3c0.5,5,1,10.4,1.8,16
				C629.2,327,629,345.9,628.3,364.2z"/>
			<path class="st19" d="M620.7,177.1c-5.1-1.3-8.5,1.1-8.5,1.1c-14.4,1.7-14.6,19-13.1,24.6c1.5,5.6,3.6,11.5-0.9,20.3
				c-13.1,25.4,25,17.3,25,17.3c-3.7-16.9,18-15.6,17.5-13.7C668.2,226.7,632.4,180,620.7,177.1z"/>
			<path class="st17" d="M591.2,290.6c0,0,2.4,5.6,2.5,7.1c0.1,1.5-0.6,4-1.2,4.2c-0.5,0.2-0.8-2.9-1-2.8c-0.2,0.2,0.6,5.2-0.2,5.7
				c-0.8,0.5-4-4.2-4.5-6.4c-0.5-2.2,0-5.9,0-5.9L591.2,290.6z"/>
			<path class="st17" d="M616,241.1c0,0-3.6,4-6.8,10.7c-1.3,2.7-2.6,5.9-3.5,9.4c-2.2,8.6-11,25.1-14,30.7c-0.6,1.2-1,1.9-1,1.9
				l-4-0.8c0,0,2.5-22.3,4.2-28.6c1.8-6.6,2.3-27.3,5.1-34c3.6-8.8,11.1-9.9,11.1-9.9L616,241.1z"/>
			<path class="st18" d="M609.2,251.8c-1.3,2.7-2.6,5.9-3.5,9.4c-2.2,8.6-6.4,20.4-14,30.7c0,0,1.2-13.7,3.8-17.9
				c2.6-4.2,2.9-30.8,2.9-30.8L609.2,251.8z"/>
			<path class="st17" d="M662.1,406c0,0,4.4,4,3.5,6.8c-0.9,2.8-4.8,4.7-5.3,8.2c-0.5,3.5-2.7,5.3-4.6,5.3c-1.9,0-9.1,0-9.1,0
				s-1.4-2.4,2-3.2c3.4-0.7,4.7-4.8,4.5-8.6c-0.2-3.8,0.3-8.8,0.3-8.8l7.2-1.7L662.1,406z"/>
			<path class="st17" d="M635.1,268.6c0,0,15.4,7,18.9,25.5c3.9,20.2-5.6,42.8-3.4,52.4c2.1,9.5,10,27.9,10,57.6
				c0,0-0.8,1.7-3.3,2.6c-0.8,0.3-3,1.1-4.1,1.3c0,0-1-3.8-2.4-6.7c-6.2-13-23.9-41.5-24.8-48.7c-0.6-5.1-6-38.7-17.6-58.4
				c-2.8-4.7,1.7-23.5,1.7-23.5L635.1,268.6z"/>
			<path class="st17" d="M642.6,286.7c-5-11.3-8.1-14.6-7.5-18.1c0.4-2.6-1.3-48.7-1.3-48.7c-0.6-0.2-1.8-0.4-2.5-0.5
				c-2.1-0.5-3.5-2.1-4.5-3.9c-1.3-2.4-2.7-7-2.7-11.5l-4.9,0.3l-6.9,2.3c0,0,1.7,4.3,1.7,7.5c0,0,0,0.1,0,0.1c0,2.8-1.8,5.3-4.5,6
				c-1.4,0.4-2.6,0.7-2.6,0.7s-4,11.4-4.8,23.1c-0.8,11.7,7.3,16.8-0.1,40.2C594.7,308,645.4,292.9,642.6,286.7z"/>
			<path class="st20" d="M612.5,207.4c0,0,1.5,3.3,1.5,6.6c6.1-0.9,8.8-5.8,10.1-8.9L612.5,207.4z"/>
			<path class="st17" d="M640.7,240.3c0,0,2.4,23.3,4.4,29.3c2.5,7.8,0,11.9,0,11.9l-24.4,6l-21.4-3c0,0-1.1-4.9-0.6-8.9
				c0.5-4.1,2.7-7.3,2.8-13.4c0.1-11.4-5.9-13.1-3.9-22.6c2.2-10.3,9.4-18.7,9.4-18.7s11.6,11.4,26.8-1L640.7,240.3z"/>
			<g>
				<path class="st17" d="M612.7,212.2c0,0,14-3.1,12-11.8c-2.1-8.7-1.6-15-10.7-13.4c-9.1,1.6-10,5.4-10,8.4
					C603.9,198.5,608.9,212.7,612.7,212.2z"/>
				<path class="st19" d="M607.5,188.3c0,0,6.3,9.3,12.5,9.4c6.2,0.1,8.4-2.1,8.4-2.1s-5.4-2.5-7.8-8.5
					C620.6,187.1,609.2,182.7,607.5,188.3z"/>
				<path class="st19" d="M608.7,188.9c0,0-2.6,1.7-3.3,4.1c-0.7,2.3-1,5.2,0,8.5c0,0-4.5-6.3-2.2-11
					C605.6,185.5,608.7,188.9,608.7,188.9z"/>
			</g>
			<path class="st21" d="M655,306.1c0,0-11.9-2.9-24.6-1.1c-5,0.7-10.2,2.1-14.8,4.8c0,0-13.7-2.8-22.4-1.6c0,0-2.9-11.4,4.9-27.7
				c0,0,16.6,1.2,38-1.8c3.2-0.5,6.6-1,10-1.7C646.1,276.9,657.2,288.6,655,306.1z"/>
			<path class="st21" d="M643.2,260.2c-2.4,0.6-4.6,1.2-6.8,1.7c-29,6.7-37.1,2.1-37.1,2.1s-2.2-12.5-0.9-20.4
				c1.3-8,8.7-23.2,8.7-23.2l2.9-0.5c0,0-2.1,8.7-2.4,11.7c-0.5,4.4,4,5.5,10.1,4.4c9.7-1.7,12.1-17.3,12.1-17.3
				c2.3-0.1,4.2,0.7,4.2,0.7c-1.4,8.7,0.2,16.6,2.3,22.6c0,0,0,0,0,0c2.6,7.4,6.1,12,6.1,12L643.2,260.2z"/>
			<path class="st22" d="M655,306.1c0,0-11.9-2.9-24.6-1.1c10.3-11.1,5.8-26.4,5.8-26.4c3.2-0.5,6.6-1,10-1.7
				C646.1,276.9,657.2,288.6,655,306.1z"/>
			<path class="st20" d="M613.7,271.4c0,0.6-0.3,1-0.7,1c-0.4,0-0.7-0.5-0.7-1c0-0.6,0.3-1,0.7-1
				C613.4,270.4,613.7,270.8,613.7,271.4z"/>
			<path class="st17" d="M633.9,219.5c0,0,6.4,1.7,8.8,5.7c2.4,4,16,24.8,17.9,35.2c1.9,10.4-11,35.7-11,35.7l-3.5-2.4
				c0,0,1.5-29,0-32c-1.8-3.5-3.8-7.6-3.8-7.6s-7.7-17.7-7.9-18.5C632.3,226.2,633.9,219.5,633.9,219.5z"/>
			<path class="st17" d="M646.2,291.9c0,0-2.3,0.6-3.5,1.4c-1.2,0.7-4.1,3.7-3.4,4.2c0.7,0.5,2.5-1.3,3.4-1.3s-4.4,5-3.9,6
				c0.4,1,6.5,0.5,8.6-1.2c2-1.7,3.2-7.6,3.2-7.6L646.2,291.9z"/>
			<path class="st22" d="M643.2,260.2c-2.4,0.6-4.6,1.2-6.8,1.7c-3.3-6.3,0.3-18.6-0.1-19.8c2.6,7.4,6.1,12,6.1,12L643.2,260.2z"/>
		</g>
		<g>
			<rect x="549" y="425.4" class="st23" width="154.3" height="5.6"/>
			<rect x="554.9" y="431" class="st24" width="4.9" height="3.6"/>
			<rect x="687.5" y="431" class="st24" width="4.9" height="3.6"/>
			<path class="st24" d="M587.1,341.4h-43c-0.9,0-1.8-0.6-2.2-1.4l-3.9-9.2c-0.4-1,0.3-2.2,1.4-2.2h43.9l4.8,11.3
				C588.4,340.6,587.8,341.4,587.1,341.4z"/>
			<path class="st23" d="M587.4,341.4h-40.8c-1.3,0-2.4-0.8-2.9-1.9l-4.1-9.6c-0.3-0.6,0.2-1.3,0.9-1.3h42.8c1.2,0,2.4,0.7,2.8,1.9
				l3.4,7.9C590.1,339.8,589,341.4,587.4,341.4z"/>
			<polygon class="st16" points="586.2,337.3 545.8,337.3 542.7,330 583.1,330 			"/>
			<rect x="562.3" y="339.2" class="st23" width="4" height="87.1"/>
		</g>
	</g>
	<g>
		<path class="st16" d="M253.1,275.3v-3.6h1.4v3.5c0,1,0.5,1.5,1.3,1.5c0.8,0,1.3-0.5,1.3-1.5v-3.6h1.4v3.5c0,1.9-1.1,2.8-2.7,2.8
			C254.2,278.1,253.1,277.2,253.1,275.3z"/>
		<path class="st16" d="M260,271.8h1.3l2.9,3.8v-3.8h1.4v6.3h-1.2l-3-4v4H260V271.8z"/>
		<path class="st16" d="M267,271.8h2.4c2,0,3.3,1.3,3.3,3.1c0,1.8-1.4,3.1-3.3,3.1H267V271.8z M269.5,276.8c1.1,0,1.9-0.8,1.9-1.9
			c0-1.1-0.8-1.9-1.9-1.9h-1.1v3.8H269.5z"/>
		<path class="st16" d="M274,271.8h4.7v1.2h-3.3v1.3h2.9v1.2h-2.9v1.3h3.4v1.2H274V271.8z"/>
		<path class="st16" d="M280,271.8h2.9c0.8,0,1.4,0.2,1.8,0.6c0.3,0.3,0.5,0.8,0.5,1.4c0,1-0.5,1.6-1.3,1.9l1.5,2.2h-1.6l-1.4-2
			h-1.1v2H280V271.8z M282.8,274.8c0.7,0,1.1-0.4,1.1-0.9c0-0.6-0.4-0.9-1.1-0.9h-1.4v1.8H282.8z"/>
		<path class="st16" d="M285.9,271.8h1.5l1.3,4.2l1.4-4.3h1.2l1.4,4.3l1.3-4.2h1.4l-2.1,6.3H292l-1.4-4.1l-1.4,4.1H288L285.9,271.8z
			"/>
		<path class="st16" d="M296.4,271.8h4.7v1.2h-3.3v1.3h2.9v1.2h-2.9v1.3h3.4v1.2h-4.8V271.8z"/>
		<path class="st16" d="M302.4,271.8h1.4v6.3h-1.4V271.8z"/>
		<path class="st16" d="M305.1,274.9c0-1.8,1.4-3.2,3.3-3.2c1.1,0,1.8,0.3,2.5,0.9l-0.9,1c-0.5-0.4-0.9-0.6-1.6-0.6
			c-1,0-1.8,0.9-1.8,2c0,1.1,0.8,2,1.9,2c0.5,0,0.9-0.1,1.3-0.4v-0.9h-1.4v-1.2h2.7v2.7c-0.6,0.5-1.5,1-2.7,1
			C306.4,278.1,305.1,276.8,305.1,274.9z"/>
		<path class="st16" d="M312.3,271.8h1.4v2.5h2.5v-2.5h1.4v6.3h-1.4v-2.5h-2.5v2.5h-1.4V271.8z"/>
		<path class="st16" d="M320.6,273h-1.9v-1.3h5.2v1.3H322v5h-1.4V273z"/>
	</g>
	<g>
		<path class="st25" d="M200.6,217.6c0,0-5.6-9.7-17.8-3.1c-8.6,4.7-6.8,12.6-9.1,15.5c-2.3,3-15.1,4.3-11.4,19.7
			c2.2,9.4,31.8,22.7,30.1,30.7c0,0,14.7-17.8,3-25.9c-5.3-3.7-8.3-10.7-7.9-12.2C187.9,240.8,200.6,217.6,200.6,217.6z"/>
		<path class="st17" d="M189.9,264.3c0,0,8.1,33.6,16.1,40.3c2.5,2.1,7.5,6.4,11.6,9.2c3.7,2.5,4.9,2.9,4.9,2.9l-3.4,3.3
			c0,0-0.7-1.3-2.9-2.2c-5.9-2.2-18-5.9-21.2-9.7c-4.4-5.2-16.5-31.2-16.5-31.2L189.9,264.3z"/>
		<g>
			<path class="st26" d="M282.4,398.9c0,0-3.1,6.9-14.5,12.3c0,0,0,0,0,0c-4.8,2.3-11,4.3-19.1,5.4c-24.9,11.9-37.8,3.7-37.8,3.7
				c-33.2-13.3-46.9-58-22.8-76.3c7-5.3,14.1-6.9,20.3-6.8c10.9,0.2,21.5-2.9,30.4-9.1c5.1-3.5,11.9-6.1,20.7-5.5
				c4.1,0.3,7.9,1.3,11.3,3.1l0.4,0.2C292.8,337,300,373.7,282.4,398.9z"/>
			<path class="st8" d="M282.4,398.9c0,0-3.1,6.9-14.5,12.3c0,0,0,0,0,0c-13.5,5.3-9-2-24,2.5c-15,4.5-25.4,2.2-41.5-17.9
				c-16.2-20.1-15.1-44-1.1-50.9c14-6.9,24.9,2.5,40-15.2c10.4-12.2,29.7-3.9,29.7-3.9l0.4,0.2C292.8,337,300,373.7,282.4,398.9z"/>
			<path class="st27" d="M244.8,298.4c9.1,7.1,14.8,14.5,14.8,14.5s-15.9,4.1-21.8,0.1c-7-4.8-9.6-4.5-16.3-4.7
				C221.4,308.3,235.7,291.3,244.8,298.4z"/>
			<g>
				<path class="st15" d="M225.3,339.3L225.3,339.3c-5.8-6.7-6.8-16.9-6.6-24.2c0.2-5.9,1.4-14.1,2-18c0.1-0.8,1.2-1.1,1.7-0.4
					l1.3,1.8c1.3,1.8,1.7,4.1,1.1,6.3c-1.7,6.6-4.6,21.8,1.7,31.6C227.2,337.5,226.3,340.5,225.3,339.3z"/>
			</g>
			<path class="st28" d="M257.4,330.1c0,0,11.7,0,14.5,8.1c2.7,8.1-5.3,9.6-10.5,6.7C256.1,341.9,251,331.7,257.4,330.1z"/>
		</g>
		<path class="st14" d="M113.7,323.2c0.1,0.1,0.1,0.3,0.2,0.4c1.8,3.1,5.8,10.6,10.3,18.9c2.1,3.9,4.3,8,6.5,11.9
			c3.6,6.6,6.9,12.5,8.9,15.7c2,3.2,3.4,5.4,4,6.3c0,0,0,0,0,0c0.2,0.3,0.2,0.6,0.2,0.9c-0.2,2.8-0.1,5.6,0.1,8.3
			c2.7,26.9,20.9,41.3,20.9,41.3l5.4,0.8c0,0-7.6-28.3-9.9-44.3c-0.4-2.7-0.5-4.9-0.4-6.3c0.4-4.2-0.3-10.3-1.7-17.3
			c-2.5-12.5-7.1-27.8-11-40.1c-0.3-0.8-7.8-28.2-7.8-28.2c-6.4,5.6-29.6,7.9-29.6,7.9S105.6,308.9,113.7,323.2z"/>
		<path class="st15" d="M181.4,434.6h-22.5c0,0-0.5-3.4,0.6-6c1.1-2.5,2.7-2.6,0.2-6.5c1.4,1.5,6,2.1,9.3,1.6c0.4,0.6,2.6,5,3.9,5.9
			C174.4,430.7,181,430.3,181.4,434.6z"/>
		<path class="st29" d="M113.7,323.2c0.1,0.1,0.1,0.3,0.2,0.4c1.8,3.1,11.4,20.8,15.9,29.1c-5.2-21.4-1.6-42.8-1.6-42.8L113.7,323.2
			z"/>
		<path class="st25" d="M197.5,216.2c0.1-0.6-12.9,5.9-13.5,6.6c-6.1,6.8-4.4,15.6-0.9,15.7c2.2,0.1,1.8,3.8,1.8,3.8l25-10.6
			C209.9,231.7,206.9,214.2,197.5,216.2z"/>
		<path class="st4" d="M189.1,259.2c0,0,3.8,7.6,3.3,13.7c0,0-4.6,7.2-16.5,9.1C176,282,186.2,259.2,189.1,259.2z"/>
		<path class="st14" d="M131.2,301l0.1-4.2c-8.4,1.1-28.9-10-28.9-10s-8.8,5.8-10,22.5c-0.6,8.1-4.3,42.6-4.7,52.9
			c-0.1,3.7-0.2,6.4-0.2,7.4c0,0,0,0,0,0c0,0.3-0.2,0.6-0.4,0.9c-1.7,2.2-3.2,4.5-4.5,7c-12.8,23.8-6.1,56.2-6.1,56.2l3-0.8
			c0,0,10.8-33.6,17.9-48.1c1.2-2.5,2.3-4.4,3.2-5.5c2.7-3.2,5.5-8.7,8.2-15.3C114,351.5,131.2,301,131.2,301z"/>
		<path class="st15" d="M94.3,434.6H71.8c0,0-0.5-3.4,0.6-6c1.1-2.5,2.9-3.6,2.5-6.7c1.4,1.5,3.8,3.1,7,2.7c0.4,0.6,2.6,4.1,3.9,5.1
			C87.3,430.7,93.9,430.3,94.3,434.6z"/>
		<path class="st4" d="M174.5,286.8c-3,0.5,0.5,2.9-3.7,3.4c-5.9,0.6-12,1.1-15.2,2.4c-1.2,0.5-1.9,1-2.2,1.8
			c-1.4,4.2-10.2,11.4-10.2,11.4c-39.2-1.8-41.8-19.3-41.8-19.3c25.5-24.7,47.1-38.2,65-39.9c4.4-0.4,10.2,0.1,13,1.4
			c6.3,2.8,9.7,11.3,9.7,11.3S186,284.9,174.5,286.8z"/>
		<path class="st22" d="M170.8,290.2c-5.9,0.6-12,1.1-15.2,2.4c-1.3-19.6,7.9-34.3,7.9-34.3S169.5,282.8,170.8,290.2z"/>
		<path class="st17" d="M175.9,255c0,0-14.9-0.8-17.5,8.5c-2.6,9.4,5,46.7,6.6,50.5c3,7,17.2,28,17.2,28l5.1-1.6
			c0,0-9.1-31.6-11.3-34.6C172.6,301.1,180.4,259.1,175.9,255z"/>
		<path class="st17" d="M185.2,334.3c0,0,1.7,5,2.3,6.8c0.3,1,1.3,1.5,1.6,2c1,1.2,3.9,4.2,4,5.9c0,0-0.1,0.8-0.8,0.6
			c-0.5-0.1-2.1-1.6-3.2-2c-0.4-0.1-0.8,0.1-0.8,0.5c-0.2,0.8-0.4,2.2,0.1,3.5c0.4,1.1,1.2,6.2,0.3,6.3c-3,0.1-4.7-4.4-5.7-6.9
			c-0.6-1.4-0.6-4.4-0.4-7.1c0.1-2.7-3.5-7.7-3.5-7.7L185.2,334.3z"/>
		<path class="st4" d="M155.5,276c0,0.2,14.1,2.6,22.9-1.9c0,0,7.3-23-3.2-21.9c-10.5,1.1-16.7,4.4-17,9.4
			C158,266.7,155.5,276,155.5,276z"/>
		<path class="st17" d="M179.1,249.6c1.1,3.5,4.9,13.5,10,9.7c-0.2-0.7,0.9-2.9,2.2-5.1c1.6-2.8,3.6-5.7,3.6-5.7l-8.4-7.4l-0.5-0.4
			c-2.2,3.9-4.4,5.7-6.3,7.1C179.1,248.1,178.9,248.9,179.1,249.6z"/>
		<path class="st30" d="M194.9,248.4c0,0-1.9,2.9-3.6,5.7c-5.2-3.2-5.2-9.7-4.8-13.1L194.9,248.4z"/>
		<path class="st17" d="M195.2,252.1c0,0-12.7-7.1-8.2-14.9c4.5-7.9,5.9-14.1,14.3-9.9c8.3,4.2,8.2,8.1,7.3,11.1
			C207.6,241.4,198.6,253.7,195.2,252.1z"/>
		<path class="st25" d="M210.7,233.8c-0.6-3.5-2.4-3.8-3.6-3.6c-4.7-7.8-12.4-4.7-12.4-4.7c-4.1,5.1-10,6-10,6s1.5,2.7,7.6,4.4
			c1.9,0.5,4,0.2,6-0.5c-4.2,2.4-8.6,3.3-8.6,3.3c8,0.7,15.6-6.6,16.4-7.4c0.4,1.1,1,3.5,0.6,5.3c-0.5,2.4-0.4,4.4-1.3,7.2
			C205.3,243.8,211.5,239,210.7,233.8z"/>
		<path class="st17" d="M223,314.8c0,0-0.2-0.1-0.7,0.7c-0.4,0.7-0.6,0.6-1.8,1.3c-2.1,1.3-0.7,2.8,1.3,3.6c1.4,0.6,2.3-0.3,2.4-0.9
			C224.4,318.6,224.7,316.5,223,314.8z"/>
		<path class="st17" d="M216.5,315.8c0,0,1.9,1.4,3.5-1.1c0.4-0.5,1.8-0.9,2-1c0.7-0.5,1-0.9,0.9-1.2c-0.1-0.1-0.2-0.2-0.4-0.1
			c-0.5,0.2-1.9,0.6-3.8,0.6c-0.4,0-1.4,0.6-1.6,0.7C216.7,314,215.8,315.5,216.5,315.8z"/>
	</g>
	<g>
		<g>
			<path class="st6" d="M302.1,323.5h42c10.3,0,18.5,2.8,23.6,8c4.1,4.1,6.2,9.2,6.2,15.6c0,10.2-5.4,15.9-11.9,19.5
				c10.5,4,16.9,10.1,16.9,22.5c0,16.5-13.4,24.8-33.9,24.8h-43V323.5z M339.9,360.1c8.8,0,14.3-2.8,14.3-9.8
				c0-5.9-4.7-9.3-13.1-9.3h-19.6v19.1H339.9z M345.2,396.6c8.8,0,14.1-3.1,14.1-10.1c0-6.1-4.5-9.8-14.7-9.8h-23v19.9H345.2z"/>
		</g>
		<g>
			<path class="st6" d="M395.4,323.5h21.5l23.8,38.3l23.8-38.3h21.5V414h-19.8v-59.1l-25.5,38.6h-0.5l-25.2-38.3V414h-19.5V323.5z"
				/>
		</g>
		<g>
			<path class="st6" d="M508.5,323.5h19.9V414h-19.9V323.5z"/>
		</g>
	</g>
	<path class="st24" d="M787.8,436.5H0.8c-0.5,0-0.8-0.4-0.8-0.8v-0.2c0-0.5,0.4-0.8,0.8-0.8h786.9c0.5,0,0.8,0.4,0.8,0.8v0.2
		C788.6,436.1,788.3,436.5,787.8,436.5z"/>
</g>
</svg>
